<svg width="24" height="24" viewBox="0 0 24 24" fill="none" xmlns="http://www.w3.org/2000/svg">
<path d="M12.0012 0.333328C18.4444 0.333328 23.6678 5.55667 23.6678 12C23.6678 17.1329 20.3531 21.4914 15.7476 23.0521L15.4835 23.138L12.0957 14.3298C13.3428 14.275 14.3345 13.2301 14.3345 12C14.3345 10.7113 13.2897 9.66666 12.0012 9.66666C10.7125 9.66666 9.66783 10.7113 9.66783 12C9.66783 13.2563 10.6605 14.2806 11.9043 14.3313L8.51751 23.1377L8.2547 23.0521C3.64914 21.4914 0.334473 17.1329 0.334473 12C0.334473 5.55667 5.55782 0.333328 12.0012 0.333328ZM12.0012 2.66666C6.84648 2.66666 2.66781 6.84533 2.66781 12C2.66781 15.4068 4.49304 18.3871 7.21897 20.0167L8.94502 15.5268C7.95843 14.6712 7.33447 13.4085 7.33447 12C7.33447 9.42266 9.42381 7.33333 12.0012 7.33333C14.5784 7.33333 16.6678 9.42266 16.6678 12C16.6678 13.4087 16.0437 14.6717 15.0567 15.5273C15.7171 17.2464 16.293 18.7437 16.7831 20.0184C19.5089 18.3876 21.3345 15.407 21.3345 12C21.3345 6.84533 17.1558 2.66666 12.0012 2.66666Z" fill="white"/>
</svg>
