<svg width="24" height="24" viewBox="0 0 24 24" fill="none" xmlns="http://www.w3.org/2000/svg">
<path d="M20.1666 23.6667H3.83331C1.90032 23.6667 0.333313 22.0997 0.333313 20.1667V1.49999C0.333313 0.855668 0.855653 0.333328 1.49998 0.333328H17.8333C18.4777 0.333328 19 0.855668 19 1.49999V15.5H23.6666V20.1667C23.6666 22.0997 22.0997 23.6667 20.1666 23.6667ZM19 17.8333V20.1667C19 20.811 19.5223 21.3333 20.1666 21.3333C20.811 21.3333 21.3333 20.811 21.3333 20.1667V17.8333H19ZM16.6666 21.3333V2.66666H2.66665V20.1667C2.66665 20.811 3.18899 21.3333 3.83331 21.3333H16.6666ZM4.99998 6.16666H14.3333V8.5H4.99998V6.16666ZM4.99998 10.8333H14.3333V13.1667H4.99998V10.8333ZM4.99998 15.5H10.8333V17.8333H4.99998V15.5Z" fill="white"/>
</svg>
